<svg xmlns="http://www.w3.org/2000/svg" width="291.6" height="360" viewBox="0, 0, 291.6, 360"><g stroke-width="8" fill="none"><path d="M143.853 26.96L13.858 49.882l11.408 64.7M146.29 40.787l20.918-17.895-25.793-9.758z" stroke="#00C97C"/><path d="M184.184 19.85l42.104-7.425 34.142 193.627m-13.826 2.438l17.895 20.918 9.757-25.794z" stroke="#E55C46"/><path d="M267.54 246.382l11.41 64.7-129.995 22.92m-2.438-13.826L125.6 338.072l25.793 9.758z" stroke="#317FB6"/><path d="M108.418 341.15l-42.105 7.425L32.17 154.947M46 152.51l-17.895-20.92-9.758 25.795z" stroke="#F9CA73"/></g><path d="M146.74 150.37l20.005 113.45-11.873 2.092-20.004-113.45 11.872-2.093z" fill="#00C97C"/><path d="M136.738 93.644l10.002 56.725-11.872 2.092-10.002-56.725 11.872-2.093z" fill="#317FB6"/><path d="M145.68 144.357l52.122-9.19 2.094 11.872-52.122 9.19-7.03-4.786 4.936-7.087z" fill="#F9CA73"/><path d="M81.657 155.646l52.15-9.196 6.936 4.994-4.842 6.88-52.15 9.195-2.093-11.874z" fill="#E55C46"/></svg>