<svg xmlns="http://www.w3.org/2000/svg" width="274" height="274" viewBox="0, 0, 274, 274"><path d="M189.28 26.322c16.13 0 30.708 6.812 40.94 17.713a112.328 112.328 0 0 0 35.617-13.61c-4.188 13.096-13.08 24.088-24.662 31.03a112.148 112.148 0 0 0 32.215-8.832 114 114 0 0 1-27.988 29.035c.108 2.405.162 4.824.162 7.256-.72 68.187-44.725 132.41-110.58 152.503-14.53 4.434-29.263 6.244-44.38 7.023H82.7c-29.426-.224-57.77-9.754-82.64-25.102v-.03c4.418.56 8.872.71 13.32.776 26.278 0 50.463-8.967 69.66-24.01-24.545-.453-45.26-16.67-52.396-38.953a56.014 56.014 0 0 0 10.552 1.007c5.116 0 10.07-.685 14.778-1.967-25.66-5.152-44.993-27.822-44.993-54.998 0-.236 0-.47.005-.705a55.865 55.865 0 0 0 25.406 7.015C21.34 101.414 11.44 84.246 11.44 64.787c0-10.28 2.766-19.914 7.594-28.198 27.664 33.933 68.993 56.263 115.61 58.602a56.31 56.31 0 0 1-1.454-12.782c0-30.975 25.114-56.088 56.09-56.088z" fill="#FFFFFE"/></svg>